<svg width="645" height="228" viewBox="0 0 645 228" fill="none" xmlns="http://www.w3.org/2000/svg">
<path d="M125.767 70.8817L54.0308 123.668L52.7022 19.95L125.767 70.8817Z" fill="#6372FF"/>
<rect x="109.995" y="61.5642" width="73.7679" height="41" transform="rotate(35.8198 109.995 61.5642)" fill="#EAEAEA"/>
<path d="M543.66 96.3245C610.929 135.254 572.356 144.084 543.66 143.541V96.3245Z" fill="#EAEAEA"/>
<path d="M215 142.5L153 94.5H301L303.5 98H399.5L397 94.5H540L543.5 142.5H394L399.5 139H306L301 142.5H215Z" fill="#EAEAEA"/>
<rect x="224" y="104" width="308" height="21" rx="9.5" fill="#6372FF"/>
<mask id="path-6-inside-1" fill="white">
<ellipse cx="293" cy="114.5" rx="6" ry="6.5"/>
</mask>
<ellipse cx="293" cy="114.5" rx="6" ry="6.5" fill="#FFF7F7"/>
<path d="M289 114.5C289 113.336 290.052 111 293 111V131C302.575 131 309 122.844 309 114.5H289ZM293 111C295.948 111 297 113.336 297 114.5H277C277 122.844 283.425 131 293 131V111ZM297 114.5C297 115.664 295.948 118 293 118V98C283.425 98 277 106.156 277 114.5H297ZM293 118C290.052 118 289 115.664 289 114.5H309C309 106.156 302.575 98 293 98V118Z" fill="black" mask="url(#path-6-inside-1)"/>
<mask id="path-8-inside-2" fill="white">
<ellipse cx="331" cy="114.5" rx="6" ry="6.5"/>
</mask>
<ellipse cx="331" cy="114.5" rx="6" ry="6.5" fill="#FFF7F7"/>
<path d="M327 114.5C327 113.336 328.052 111 331 111V131C340.575 131 347 122.844 347 114.5H327ZM331 111C333.948 111 335 113.336 335 114.5H315C315 122.844 321.425 131 331 131V111ZM335 114.5C335 115.664 333.948 118 331 118V98C321.425 98 315 106.156 315 114.5H335ZM331 118C328.052 118 327 115.664 327 114.5H347C347 106.156 340.575 98 331 98V118Z" fill="black" mask="url(#path-8-inside-2)"/>
<mask id="path-10-inside-3" fill="white">
<ellipse cx="377" cy="114.5" rx="6" ry="6.5"/>
</mask>
<ellipse cx="377" cy="114.5" rx="6" ry="6.5" fill="#FFF7F7"/>
<path d="M373 114.5C373 113.336 374.052 111 377 111V131C386.575 131 393 122.844 393 114.5H373ZM377 111C379.948 111 381 113.336 381 114.5H361C361 122.844 367.425 131 377 131V111ZM381 114.5C381 115.664 379.948 118 377 118V98C367.425 98 361 106.156 361 114.5H381ZM377 118C374.052 118 373 115.664 373 114.5H393C393 106.156 386.575 98 377 98V118Z" fill="black" mask="url(#path-10-inside-3)"/>
<mask id="path-12-inside-4" fill="white">
<ellipse cx="417" cy="114.5" rx="6" ry="6.5"/>
</mask>
<ellipse cx="417" cy="114.5" rx="6" ry="6.5" fill="#FFF7F7"/>
<path d="M413 114.5C413 113.336 414.052 111 417 111V131C426.575 131 433 122.844 433 114.5H413ZM417 111C419.948 111 421 113.336 421 114.5H401C401 122.844 407.425 131 417 131V111ZM421 114.5C421 115.664 419.948 118 417 118V98C407.425 98 401 106.156 401 114.5H421ZM417 118C414.052 118 413 115.664 413 114.5H433C433 106.156 426.575 98 417 98V118Z" fill="black" mask="url(#path-12-inside-4)"/>
<mask id="path-14-inside-5" fill="white">
<ellipse cx="463" cy="114.5" rx="6" ry="6.5"/>
</mask>
<ellipse cx="463" cy="114.5" rx="6" ry="6.5" fill="#FFF7F7"/>
<path d="M459 114.5C459 113.336 460.052 111 463 111V131C472.575 131 479 122.844 479 114.5H459ZM463 111C465.948 111 467 113.336 467 114.5H447C447 122.844 453.425 131 463 131V111ZM467 114.5C467 115.664 465.948 118 463 118V98C453.425 98 447 106.156 447 114.5H467ZM463 118C460.052 118 459 115.664 459 114.5H479C479 106.156 472.575 98 463 98V118Z" fill="black" mask="url(#path-14-inside-5)"/>
<path d="M218.5 144L53.5 16V123.5L102.5 144H218.5Z" fill="#6372FF"/>
<path d="M231.2 32.7288L304.4 97H398L270.8 18L200 32.7288H231.2Z" fill="#6372FF"/>
<path d="M233.716 205.264L306.397 138.734L399.994 138L273.433 220.069L202.517 205.509L233.716 205.264Z" fill="#6372FF"/>
<path d="M547 105H557.462L563.481 109.75L569.5 114.5L575 119.5L579 125L557.462 122.857L547 105Z" fill="black" stroke="black"/>
<path d="M80.7444 103.563L79.5549 106.096L81.1011 110.933L77.6129 112.048L72.2012 95.1187L75.6894 94.0037L78.1425 101.678L79.0046 99.0826L81.538 92.1341L85.8285 90.7626L82.2219 100.207L91.4147 107.636L87.2637 108.963L80.7444 103.563ZM95.321 103.299L102.728 100.931L103.623 103.734L92.7286 107.216L87.3168 90.2868L90.805 89.1718L95.321 103.299ZM104.781 84.7041L113.055 95.5925L113.455 81.9313L118.036 80.4669L123.448 97.3964L119.948 98.5152L118.469 93.8874L116.264 85.7879L115.728 99.8644L113.332 100.63L104.745 89.4829L107.644 97.3478L109.123 101.976L105.635 103.091L100.223 86.1611L104.781 84.7041Z" fill="#FFEAEA"/>
<path d="M152 94L54 14L52.5 123L102 144H299L233 206H204L274 219L392 144H547L563 142.5L575 138.5L581.5 132.5L577 121L563 108.5L539 94H397L271 20L204 35H233L299 94H152Z" stroke="black" stroke-width="3"/>
<path d="M548 142.5L539 142V96L553.5 104.5H546.5L557.5 123.5L577 125.5L579.5 132.5L574 137.5L563 141L548 142.5Z" fill="#EAEAEA"/>
</svg>
